<svg width="24" height="24" viewBox="0 0 24 24" fill="none" xmlns="http://www.w3.org/2000/svg">
<path d="M12 22.6648C11.6583 22.6648 11.3289 22.541 11.0722 22.3162C10.1026 21.4684 9.16789 20.6717 8.34318 19.9689L8.33897 19.9653C5.92107 17.9048 3.83312 16.1254 2.38037 14.3725C0.756407 12.4129 0 10.5549 0 8.52521C0 6.55316 0.676207 4.73383 1.90393 3.4021C3.1463 2.05463 4.851 1.3125 6.70458 1.3125C8.08995 1.3125 9.35869 1.75049 10.4754 2.6142C11.039 3.05017 11.5499 3.58374 12 4.20612C12.4502 3.58374 12.9609 3.05017 13.5247 2.6142C14.6415 1.75049 15.9102 1.3125 17.2956 1.3125C19.149 1.3125 20.8538 2.05463 22.0962 3.4021C23.3239 4.73383 24 6.55316 24 8.52521C24 10.5549 23.2437 12.4129 21.6198 14.3723C20.167 16.1254 18.0793 17.9046 15.6617 19.9649C14.8355 20.6688 13.8993 21.4667 12.9276 22.3165C12.6711 22.541 12.3415 22.6648 12 22.6648Z" fill="#E24A4A"/>
</svg>
