<svg viewBox="0 0 20 20" fill="none" xmlns="http://www.w3.org/2000/svg">
<path d="M9.99998 18.8873C9.71525 18.8873 9.44075 18.7842 9.22682 18.5968C8.41887 17.8903 7.63991 17.2264 6.95265 16.6408L6.94914 16.6377C4.93422 14.9207 3.19427 13.4378 1.98364 11.9771C0.630339 10.3441 0 8.79578 0 7.10434C0 5.46097 0.563506 3.94485 1.58661 2.83508C2.62191 1.71219 4.0425 1.09375 5.58715 1.09375C6.74163 1.09375 7.7989 1.45874 8.72954 2.1785C9.1992 2.54181 9.62492 2.98645 9.99998 3.5051C10.3752 2.98645 10.8008 2.54181 11.2706 2.1785C12.2012 1.45874 13.2585 1.09375 14.413 1.09375C15.9575 1.09375 17.3782 1.71219 18.4135 2.83508C19.4366 3.94485 20 5.46097 20 7.10434C20 8.79578 19.3698 10.3441 18.0165 11.9769C16.8058 13.4378 15.066 14.9205 13.0514 16.6374C12.363 17.224 11.5828 17.8889 10.773 18.5971C10.5592 18.7842 10.2846 18.8873 9.99998 18.8873Z"/>
</svg>
