<svg viewBox="0 0 22 18" fill="none" xmlns="http://www.w3.org/2000/svg">
<g clip-path="url(#clip0_11_77)">
<path d="M1.71016 0.0191517C1.0536 0.116637 0.481253 0.539655 0.199378 1.13675C-0.374685 2.35184 0.354065 3.7706 1.66547 3.99691C1.8975 4.03695 2.25328 4.02302 2.475 3.96383C2.83766 3.86809 3.12125 3.70271 3.38766 3.43114C3.67641 3.14043 3.85344 2.80619 3.93594 2.40232C3.98922 2.14642 3.97719 1.76171 3.91188 1.50581C3.85516 1.2882 3.7125 0.988785 3.57672 0.805999C3.1436 0.222827 2.41485 -0.0835562 1.71016 0.0191517Z"/>
<path d="M6.30782 2.01931V3.44678H14.1539H22V2.01931V0.591846H14.1539H6.30782V2.01931Z"/>
<path d="M1.79609 6.97368C1.11031 7.05027 0.515625 7.46633 0.209688 8.08606C0.0807817 8.34892 0.0206255 8.58045 0.00515671 8.87813C-0.044687 9.83209 0.577501 10.6834 1.50563 10.934C1.69984 10.9863 2.13297 11.0002 2.34438 10.9584C2.91672 10.8505 3.39797 10.5093 3.70047 9.99921C3.86547 9.72242 3.95313 9.41604 3.96516 9.07136C3.97719 8.79457 3.95313 8.6083 3.88094 8.37329C3.66266 7.67348 3.10063 7.16168 2.38047 7.00675C2.25672 6.98064 1.91641 6.96149 1.79609 6.97368Z"/>
<path d="M6.30782 8.98257V10.41H14.1539H22V8.98257V7.5551H14.1539H6.30782V8.98257Z"/>
<path d="M1.63969 14.0048C1.09828 14.1093 0.62219 14.4261 0.335159 14.8735C0.216565 15.0598 0.165003 15.166 0.103128 15.354C-0.226872 16.3515 0.276721 17.4551 1.24094 17.8486C1.97313 18.148 2.7775 17.993 3.36188 17.4377C3.60422 17.2097 3.8225 16.8337 3.9136 16.4942C3.95485 16.334 3.96 16.2923 3.96 15.9894C3.96 15.6865 3.95657 15.6447 3.91532 15.4898C3.7211 14.7691 3.18485 14.2242 2.47844 14.0362C2.33922 13.9996 2.26532 13.9909 2.03672 13.9857C1.85453 13.9822 1.72047 13.9892 1.63969 14.0048Z"/>
<path d="M6.30782 15.9806V17.4081H14.1539H22V15.9806V14.5532H14.1539H6.30782V15.9806Z"/>
</g>
<defs>
<clipPath id="clip0_11_77">
<rect width="22" height="18"/>
</clipPath>
</defs>
</svg>
