<svg viewBox="0 0 21 18" fill="none" xmlns="http://www.w3.org/2000/svg">
<g clip-path="url(#clip0_31_162)">
<path fill-rule="evenodd" clip-rule="evenodd" d="M-6.5416e-06 13.5284C-0.00342451 13.1964 0.129876 13.0074 0.428949 12.9869H2.8352C3.85717 12.9869 4.35449 13.0142 5.22436 12.3212C5.40893 12.1747 5.58325 12.0044 5.74731 11.8103C6.5249 10.8891 6.80175 9.77381 7.09228 8.59209C7.65454 6.30016 8.55005 3.87882 10.9341 2.92015C12.291 2.37527 14.1504 2.47914 15.6184 2.47914H16.519L16.5208 0.767851C16.5208 -0.0852381 16.7224 -0.233379 17.3394 0.350672L20.6804 3.51442C21.0837 3.89584 21.0273 4.14445 20.6428 4.51225L17.3445 7.66238C16.7686 8.24302 16.5088 8.07956 16.5208 7.27755V5.26828C10.7102 5.17973 10.9546 5.55264 9.33447 11.073C8.73632 12.7826 7.82885 13.9814 6.67016 14.7663C5.45849 15.5871 4.33227 15.8544 2.90698 15.8544H1.13647C0.121331 15.8544 -6.5416e-06 15.8067 -6.5416e-06 14.7714V13.5284ZM0.0393001 4.47138C0.0358821 4.80342 0.169183 4.99243 0.468255 5.01286H2.98046C4.00244 5.01286 4.49975 4.98562 5.36962 5.67865C5.55419 5.82508 5.72851 5.99536 5.89257 6.18948C6.09082 6.42446 6.25659 6.67307 6.39843 6.93018C6.65478 6.13158 6.97265 5.34831 7.39306 4.63144C7.51269 4.42881 7.63916 4.23129 7.77417 4.03888C7.4768 3.73238 7.15722 3.46504 6.81543 3.23346C5.60375 2.41273 4.47753 2.14539 3.05224 2.14539H1.17578C0.160638 2.14539 0.0393001 2.19307 0.0393001 3.22836V4.47138ZM9.15503 13.6987C9.66088 14.2811 10.2881 14.7612 11.0811 15.0797C12.438 15.6245 14.1931 15.5207 15.6611 15.5207H16.5618L16.5635 17.232C16.5635 18.085 16.7651 18.2332 17.3821 17.6491L20.7231 14.4854C21.1265 14.104 21.0701 13.8554 20.6855 13.4876L17.3872 10.3374C16.8113 9.75679 16.5515 9.92025 16.5635 10.7223V12.7315C12.3286 12.7962 11.3647 12.614 10.5273 10.3749C10.4812 10.535 10.418 10.7546 10.1975 11.5072C10.1924 11.5243 10.1873 11.5396 10.1821 11.5549C9.89673 12.3654 9.55322 13.0755 9.15503 13.6987Z"/>
</g>
<defs>
<clipPath id="clip0_31_162">
<rect width="21" height="18"/>
</clipPath>
</defs>
</svg>
